<svg id="RZ" xmlns="http://www.w3.org/2000/svg" viewBox="0 0 192.17078 68.72007"><defs><style>.cls-1{fill:#632949;}</style></defs><path class="cls-1" d="M35.40112,51.53454c0-5.09271-1.93969-9.5553-4.84887-12.04724-2.90943,2.49194-4.84913,6.95453-4.84913,12.04724s1.9397,9.55536,4.84913,12.04724C33.46143,61.0899,35.40112,56.62725,35.40112,51.53454Z" transform="translate(-16.61565 -17.12005)"/><path class="cls-1" d="M23.06915,61.13678a10.37632,10.37632,0,0,0-2.45739-1.38959,7.42894,7.42894,0,0,0-2.68128-.43256,8.47167,8.47167,0,0,0-.96722.084q-.16407,1.85348-.252,3.67779a9.76758,9.76758,0,0,1,2.77869-.2027,12.33286,12.33286,0,0,1,3.74762.93689,22.58927,22.58927,0,0,1,3.53839,1.89643A15.458,15.458,0,0,0,23.06915,61.13678Z" transform="translate(-16.61565 -17.12005)"/><path class="cls-1" d="M22.813,74.03851a3.82145,3.82145,0,0,0,3.74365-3.74359A3.82066,3.82066,0,0,0,22.813,74.03851Z" transform="translate(-16.61565 -17.12005)"/><path class="cls-1" d="M30.48071,78.34112a5.09472,5.09472,0,0,0,0-7.059,5.09474,5.09474,0,0,0,0,7.059Z" transform="translate(-16.61565 -17.12005)"/><path class="cls-1" d="M67.80859,44.13427c.01252-.05859.02387-.11725.03351-.17694.01514-.09845.022-.21155.02942-.32355.00549-.08075.02185-.15814.02185-.24072a2.49981,2.49981,0,0,0-2.54419-2.574c-1.0896-.00525-2.49206.80584-4.39612,2.39483-.4931.41181-4.019,3.25507-4.18188,3.38788.1629.13257,3.68878,2.97565,4.18188,3.38764,1.90406,1.589,3.30652,2.40008,4.39612,2.39489a2.5,2.5,0,0,0,2.54419-2.574c0-.08258-.01636-.16-.02185-.24079-.00738-.112-.01428-.22509-.02942-.32348-.00964-.05951-.021-.11835-.03351-.17719-.0664-.329-.15808-.61609-.21728-.97015a10.13632,10.13632,0,0,1,0-2.994C67.65051,44.75054,67.74219,44.46319,67.80859,44.13427Z" transform="translate(-16.61565 -17.12005)"/><path class="cls-1" d="M38.14844,74.03851a3.82112,3.82112,0,0,0-3.74365-3.74359,3.82145,3.82145,0,0,0,3.74365,3.74359Z" transform="translate(-16.61565 -17.12005)"/><path class="cls-1" d="M52.7099,32.51532c-.06573-.014-.13147-.0268-.19849-.03754-.11041-.017-.23736-.02478-.363-.033-.09064-.00617-.17743-.02454-.27008-.02454a2.80473,2.80473,0,0,0-2.88794,2.85437c-.0058,1.22248.90417,2.796,2.68689,4.93207.462.55328,3.65191,4.509,3.8009,4.69177.14874-.1828,3.33844-4.13849,3.80072-4.69177,1.62567-1.948,2.51679-3.4245,2.6582-4.59723q-1.86181-1.59449-3.75048-3.0802c-.344.07318-.65387.16718-1.02906.22992a11.37244,11.37244,0,0,1-3.359,0C53.40137,32.69268,53.079,32.58984,52.7099,32.51532Z" transform="translate(-16.61565 -17.12005)"/><path class="cls-1" d="M45.60675,40.81878a2.5,2.5,0,0,0-2.54419,2.574c0,.08258.01642.16.02191.24072.00733.112.01428.22516.02942.32355.00958.05951.021.11834.03351.17718.06635.329.15808.61609.21729.97016a10.13715,10.13715,0,0,1,0,2.99395c-.05921.35413-.15094.64142-.21729.9704-.01251.0586-.02393.11719-.03351.17694-.01514.09845-.02209.21155-.02942.32355-.00549.08075-.02191.15814-.02191.24072a2.49986,2.49986,0,0,0,2.54419,2.574c1.08966.00525,2.49213-.80591,4.39612-2.39484.4931-.4118,4.01929-3.25506,4.18213-3.38788-.16284-.13256-3.689-2.97564-4.18213-3.38769C48.09888,41.62469,46.69641,40.81359,45.60675,40.81878Z" transform="translate(-16.61565 -17.12005)"/><path class="cls-1" d="M41.61432,62.87377a9.4695,9.4695,0,0,1,3.76861.47822,9.70676,9.70676,0,0,1,2.54743,1.18762,3.89979,3.89979,0,0,0-.58789-3.31714,4.77212,4.77212,0,0,0-4.1687-1.90784,7.42894,7.42894,0,0,0-2.68128.43256,10.37613,10.37613,0,0,0-2.45739,1.38959,15.45787,15.45787,0,0,0-3.70673,4.57031,22.586,22.586,0,0,1,3.53833-1.89643A12.33286,12.33286,0,0,1,41.61432,62.87377Z" transform="translate(-16.61565 -17.12005)"/><path class="cls-1" d="M70.34961,43.58953c-.08087.3877-.18762.733-.258,1.154a9.41889,9.41889,0,0,0-.13671,1.85778v.00043a9.41729,9.41729,0,0,0,.13671,1.85773c.07294.43646.18573.78943.2674,1.19482.0155.07245.02954.14435.04138.21839.01856.12054.027.25946.03613.397.00672.1.027.19507.027.29663a3.78626,3.78626,0,0,1-3.57715,3.96552c-.7077,0-1.69061.059-4.08441-1.8252-.63013-.49615-6.02753-6.1015-6.03076-6.10492h-.00024l.00012-.00043h.00012c.00323-.00317,5.40063-5.60876,6.03076-6.10473a9.266,9.266,0,0,1,2.75879-1.64337Q64.44488,37.81206,63.286,36.788c-.25879.40271-.55951.83746-.95856,1.34436-.55664.707-6.84539,6.76245-6.84924,6.76605v.00025l-.00049-.00013v-.00012c-.00354-.0036-6.2926-6.059-6.849-6.766-2.11267-2.684-2.04791-3.78674-2.04791-4.58081V33.55a4.24782,4.24782,0,0,1,4.44843-4.0133c.114,0,.22113.02264.33282.03021.15454.01019.31067.01972.44647.04065.08252.01324.16345.029.24445.04626.45434.09168.85113.21827,1.34051.30011a10.86625,10.86625,0,0,0,1.58881.15326A91.43192,91.43192,0,0,0,30.55212,17.12005c-5.0512,8.16669-9.14178,18.70331-11.72943,30.28412a92.34273,92.34273,0,0,0-1.64679,9.98035,8.2547,8.2547,0,0,1,1.05585-.032,8.116,8.116,0,0,1,5.74951,2.95832,13.12072,13.12072,0,0,1,2.79468,5.39624,19.88848,19.88848,0,0,0-3.63916-1.03565,15.94422,15.94422,0,0,0-3.64941-.14123,8.50583,8.50583,0,0,0-2.8454.74121A90.39641,90.39641,0,0,0,17.1142,77.0122a105.66491,105.66491,0,0,0,12.15765,4.50153A7.06166,7.06166,0,0,1,27.646,76.95141a6.85333,6.85333,0,0,1,2.83471-5.66931,6.85331,6.85331,0,0,1,2.83472,5.66931,6.966,6.966,0,0,1-2.15485,5.11615A97.63012,97.63012,0,0,0,40.93323,84.248a105.94027,105.94027,0,0,0,25.42749,1.33618,108.607,108.607,0,0,0,9.04272-25.53253c.65747-2.94195,1.19239-5.85638,1.61035-8.72589C74.9895,48.72149,72.76343,46.13226,70.34961,43.58953Zm-46.884,5.819a17.13233,17.13233,0,0,1,7.08667-14.17321,17.13279,17.13279,0,0,1,7.08642,14.17321,17.13271,17.13271,0,0,1-7.08642,14.17322A17.13226,17.13226,0,0,1,23.46558,49.40856ZM25.05322,74.8048a5.13977,5.13977,0,0,1-4.51,1.5033,5.31512,5.31512,0,0,1,6.01343-6.01318A5.14047,5.14047,0,0,1,25.05322,74.8048Zm5.49524-5.64727a6.25175,6.25175,0,0,1-4.25195-1.4173,6.25147,6.25147,0,0,1,4.25195-1.41736,6.2515,6.2515,0,0,1,4.252,1.41736A6.25178,6.25178,0,0,1,30.54846,69.15753ZM40.418,76.3081a5.31508,5.31508,0,0,1-6.01318-6.01318A5.31482,5.31482,0,0,1,40.418,76.3081Zm9.3584-10.11829a12.08574,12.08574,0,0,1-.82813,1.74048l-1.20593-.891a15.56955,15.56955,0,0,0-2.84613-1.57983,8.98311,8.98311,0,0,0-3.2793-.92926,15.9442,15.9442,0,0,0-3.64941.14123,19.88925,19.88925,0,0,0-3.6391,1.03565A13.12131,13.12131,0,0,1,37.123,60.31085a8.116,8.116,0,0,1,5.74951-2.95832,8.32954,8.32954,0,0,1,3.37109.56678,6.70075,6.70075,0,0,1,2.81958,2.19055A6.44607,6.44607,0,0,1,49.77637,66.18981Zm4.40857-19.58807h-.00013c-.00323.00317-5.40063,5.60877-6.03082,6.10474-2.39227,1.88305-3.37524,1.82538-4.083,1.82538h-.00134a3.78619,3.78619,0,0,1-3.57715-3.965c0-.10162.02021-.19708.02692-.29663.009-.13782.01752-.27692.03619-.398.01184-.07349.02588-.14569.04126-.21784.08173-.405.19458-.75866.26752-1.19482a9.42921,9.42921,0,0,0,.13672-1.85779v-.00043a9.4272,9.4272,0,0,0-.13672-1.85772c-.07294-.43647-.18573-.78943-.2674-1.19489-.0155-.07239-.02954-.14435-.04138-.21832-.01861-.12061-.0271-.25952-.03613-.397-.00671-.1-.027-.19506-.027-.29663a3.78618,3.78618,0,0,1,3.57715-3.96551c.7077,0,1.69061-.059,4.08435,1.82519.63019.49616,6.02759,6.10151,6.03082,6.10492H54.185ZM55.556,60.131a14.16076,14.16076,0,0,1-1.31348-6.56739A14.16065,14.16065,0,0,1,55.556,46.99627a14.1615,14.1615,0,0,1,1.31342,6.56732A14.16161,14.16161,0,0,1,55.556,60.131Z" transform="translate(-16.61565 -17.12005)"/><polygon points="86.512 37.116 86.512 44.303 88.14 44.303 88.14 34.233 85.933 34.247 83.051 42.055 82.843 42.758 82.65 42.041 79.808 34.233 77.519 34.233 77.519 44.303 79.161 44.303 79.161 37.116 79.078 35.668 79.492 37.103 82.154 44.303 83.492 44.303 86.181 37.103 86.595 35.599 86.512 37.116"/><path d="M114.58217,57.56055a3.95214,3.95214,0,1,0-7.90332,0,3.7166,3.7166,0,0,0,3.958,4A3.78532,3.78532,0,0,0,114.58217,57.56055Zm-3.94531,2.58007c-1.58594,0-2.248-1.04882-2.248-2.58007,0-1.51758.73145-2.6211,2.248-2.6211,1.54492,0,2.23535,1.0625,2.23535,2.6211C112.87221,59.07812,112.19643,60.14062,110.63686,60.14062Z" transform="translate(-16.61565 -17.12005)"/><path d="M123.16713,61.42285V53.69824h-1.68262v3.7793c0,1.66992-.75879,2.69043-1.959,2.69043-1.33789,0-1.793-.85547-1.793-2.19336V53.69824h-1.66992v4.73145c0,1.88965.89648,3.14551,2.77344,3.14551a2.79053,2.79053,0,0,0,2.66211-1.98633v1.834Z" transform="translate(-16.61565 -17.12005)"/><polygon points="114.294 36.578 112.307 41.627 111.935 42.8 111.562 41.627 109.645 36.578 107.907 36.578 111.024 44.303 112.776 44.303 115.976 36.578 114.294 36.578"/><path d="M137.21694,53.54688a3.86292,3.86292,0,0,0-3.959,4.05566,3.69309,3.69309,0,0,0,4.01367,3.958,3.78148,3.78148,0,0,0,3.44825-1.84766l-1.39258-.77246a2.374,2.374,0,0,1-4.44239-.92481h6.02832v-.5791C140.91322,55.33984,139.7267,53.54688,137.21694,53.54688Zm-2.31836,3.42089a2.18566,2.18566,0,0,1,2.30371-2.042,1.92589,1.92589,0,0,1,2.06933,2.042Z" transform="translate(-16.61565 -17.12005)"/><path d="M153.12514,57.11914v4.30371h1.66894V56.69141c0-1.876-.9248-3.14453-2.64843-3.14453a2.821,2.821,0,0,0-2.7041,1.93066,2.36933,2.36933,0,0,0-2.45508-1.93066,2.63319,2.63319,0,0,0-2.59375,1.959V53.69824h-1.66895v7.72461h1.66895V57.61621c0-1.69726.66211-2.67676,1.87695-2.67676,1.26855,0,1.6543.82813,1.6543,2.166v4.31738h1.66992v-3.835c0-1.69629.66211-2.64844,1.876-2.64844C152.73842,54.93945,153.12514,55.79492,153.12514,57.11914Z" transform="translate(-16.61565 -17.12005)"/><path d="M162.66322,58.94043a2.37395,2.37395,0,0,1-4.44238-.92481h6.02832v-.5791c0-2.09668-1.18652-3.88964-3.69629-3.88964a3.86292,3.86292,0,0,0-3.959,4.05566,3.69309,3.69309,0,0,0,4.01367,3.958,3.78145,3.78145,0,0,0,3.44824-1.84766Zm-2.125-4.01465a1.9259,1.9259,0,0,1,2.06934,2.042h-4.37305A2.18566,2.18566,0,0,1,160.53822,54.92578Z" transform="translate(-16.61565 -17.12005)"/><path d="M170.4728,53.54688a2.78615,2.78615,0,0,0-2.74415,1.98632v-1.835h-1.66992v7.72461h1.66992V57.61621c0-1.69726.78614-2.67676,2.02735-2.67676,1.36523,0,1.8623.85547,1.8623,2.19336v4.29h1.68262V56.70508C173.30092,54.81543,172.26674,53.54688,170.4728,53.54688Z" transform="translate(-16.61565 -17.12005)"/><path d="M176.216,58.96777c0,1.71.67578,2.59278,2.34473,2.59278a3.08224,3.08224,0,0,0,1.40722-.30274V59.90527a2.29118,2.29118,0,0,1-1.02051.22071c-.75878,0-1.1582-.3584-1.1582-1.35157V55.07812h2.17871V53.69824H177.7892V50.7876l-1.55957.938v1.97265h-1.7793v1.37988H176.216Z" transform="translate(-16.61565 -17.12005)"/><path d="M97.403,68.34082a3.15816,3.15816,0,0,1,2.93848,1.60059l1.47558-1.10352a4.833,4.833,0,0,0-4.248-2.05566c-2.40039,0-3.69727,1.35156-3.69727,2.95215,0,2.01367,1.71094,2.46874,3.46289,2.75878,1.4209.248,2.77246.46875,2.77246,1.61329,0,.85546-.68945,1.49023-1.97265,1.49023a3.62529,3.62529,0,0,1-3.22754-1.669l-1.40723,1.17188A5.20941,5.20941,0,0,0,98.01039,77.169c2.31739,0,3.68262-1.25489,3.68262-3.03418,0-2.06934-1.82031-2.49707-3.48926-2.80079-1.53125-.26171-2.74512-.45507-2.74512-1.57226C95.45863,69.00293,96.0934,68.34082,97.403,68.34082Z" transform="translate(-16.61565 -17.12005)"/><path d="M106.8561,75.73438c-1.54493,0-2.207-1.04786-2.207-2.57911,0-1.51757.73145-2.62109,2.207-2.62109a1.902,1.902,0,0,1,2,1.84863l1.71093-.373a3.38913,3.38913,0,0,0-3.66992-2.86915,3.77467,3.77467,0,0,0-3.94433,4.01465,3.66755,3.66755,0,0,0,3.90332,4,3.5515,3.5515,0,0,0,3.72461-2.91015l-1.69727-.35938C108.63539,75.03125,108.09731,75.73438,106.8561,75.73438Z" transform="translate(-16.61565 -17.12005)"/><path d="M115.83949,69.14062a3.77811,3.77811,0,0,0-3.958,4.01465,3.7166,3.7166,0,0,0,3.958,4,4.00781,4.00781,0,0,0,0-8.01465Zm0,6.59376c-1.58593,0-2.248-1.04786-2.248-2.57911,0-1.51757.73144-2.62109,2.248-2.62109,1.54493,0,2.23536,1.0625,2.23536,2.62109C118.07485,74.67285,117.39906,75.73438,115.83949,75.73438Z" transform="translate(-16.61565 -17.12005)"/><path d="M126.96254,73.07227c0,1.66894-.75879,2.68945-1.959,2.68945-1.33789,0-1.793-.85449-1.793-2.19238V69.293h-1.66992v4.73144c0,1.88965.89648,3.14454,2.77343,3.14454a2.79051,2.79051,0,0,0,2.66211-1.98633v1.835h1.669V69.293h-1.68262Z" transform="translate(-16.61565 -17.12005)"/><path d="M133.47621,66.38184l-1.55859.93847V69.293h-1.7793v1.37891H131.904V74.5625c0,1.71.67578,2.59277,2.3457,2.59277a3.06813,3.06813,0,0,0,1.40625-.30371V75.5a2.30454,2.30454,0,0,1-1.02051.2207c-.75879,0-1.15918-.3584-1.15918-1.35156V70.67188h2.17969V69.293h-2.17969Z" transform="translate(-16.61565 -17.12005)"/><path d="M154.01592,69.14062a3.8627,3.8627,0,0,0-3.958,4.05567,3.69336,3.69336,0,0,0,4.01368,3.959,3.78023,3.78023,0,0,0,3.44824-1.84863l-1.39258-.77246a2.374,2.374,0,0,1-4.44238-.92383h6.02832v-.5791C157.71319,70.93457,156.52666,69.14062,154.01592,69.14062Zm-2.3164,3.4209a2.18346,2.18346,0,0,1,2.30273-2.041,1.92615,1.92615,0,0,1,2.06934,2.041Z" transform="translate(-16.61565 -17.12005)"/><path d="M166.38018,68.34082a3.15816,3.15816,0,0,1,2.93848,1.60059l1.47558-1.10352a4.833,4.833,0,0,0-4.24805-2.05566c-2.40039,0-3.69726,1.35156-3.69726,2.95215,0,2.01367,1.71094,2.46874,3.46289,2.75878,1.4209.248,2.77246.46875,2.77246,1.61329,0,.85546-.68945,1.49023-1.97266,1.49023a3.62528,3.62528,0,0,1-3.22753-1.669l-1.40723,1.17188A5.20941,5.20941,0,0,0,166.9876,77.169c2.31738,0,3.68262-1.25489,3.68262-3.03418,0-2.06934-1.82031-2.49707-3.48926-2.80079-1.53125-.26171-2.74512-.45507-2.74512-1.57226C164.43584,69.00293,165.07061,68.34082,166.38018,68.34082Z" transform="translate(-16.61565 -17.12005)"/><path d="M177.65459,73.07227c0,1.66894-.75879,2.68945-1.959,2.68945-1.33789,0-1.793-.85449-1.793-2.19238V69.293h-1.66992v4.73144c0,1.88965.89648,3.14454,2.77344,3.14454a2.79053,2.79053,0,0,0,2.66211-1.98633v1.835h1.66894V69.293h-1.68262Z" transform="translate(-16.61565 -17.12005)"/><path d="M182.514,65.94043a1.0179,1.0179,0,0,0-1.08985,1.10352,1.00333,1.00333,0,0,0,1.08985,1.07617,1.01679,1.01679,0,0,0,1.08887-1.07617A1.03154,1.03154,0,0,0,182.514,65.94043Z" transform="translate(-16.61565 -17.12005)"/><rect x="165.0155" y="52.17292" width="1.68262" height="7.72461"/><path d="M188.1292,70.52051a2.71013,2.71013,0,0,1,2.41407,1.26855l1.2832-1.08886a4.29618,4.29618,0,0,0-3.60059-1.58692c-1.93066,0-3.0625,1.0625-3.0625,2.41406,0,1.37989,1.02051,1.84864,2.42774,2.06934,1.4209.23437,2.60742.30371,2.60742,1.10352,0,.55175-.45508,1.07617-1.54492,1.07617a2.97654,2.97654,0,0,1-2.56543-1.28321l-1.21387,1.14454a4.52532,4.52532,0,0,0,3.7373,1.54492c1.93165,0,3.07618-1.06153,3.07618-2.48242,0-1.54493-1.35157-1.90332-2.85547-2.124-1.30957-.19336-2.207-.33105-2.207-1.03515C186.6253,71.00293,187.053,70.52051,188.1292,70.52051Z" transform="translate(-16.61565 -17.12005)"/><path d="M196.09209,70.52051a2.71012,2.71012,0,0,1,2.41407,1.26855l1.2832-1.08886a4.29618,4.29618,0,0,0-3.60059-1.58692c-1.93066,0-3.0625,1.0625-3.0625,2.41406,0,1.37989,1.02051,1.84864,2.42774,2.06934,1.4209.23437,2.60742.30371,2.60742,1.10352,0,.55175-.45508,1.07617-1.54492,1.07617a2.97654,2.97654,0,0,1-2.56543-1.28321l-1.21387,1.14454a4.52533,4.52533,0,0,0,3.73731,1.54492c1.93164,0,3.07617-1.06153,3.07617-2.48242,0-1.54493-1.35157-1.90332-2.85547-2.124-1.30957-.19336-2.207-.33105-2.207-1.03515C194.58819,71.00293,195.01592,70.52051,196.09209,70.52051Z" transform="translate(-16.61565 -17.12005)"/><path d="M208.78643,73.03125c0-2.09668-1.18652-3.89063-3.69629-3.89063a3.86292,3.86292,0,0,0-3.959,4.05567,3.69335,3.69335,0,0,0,4.01367,3.959,3.78022,3.78022,0,0,0,3.44824-1.84863l-1.39258-.77246a2.374,2.374,0,0,1-4.44238-.92383h6.02832Zm-6.01465-.46973a2.18554,2.18554,0,0,1,2.30371-2.041,1.92565,1.92565,0,0,1,2.06934,2.041Z" transform="translate(-16.61565 -17.12005)"/><path d="M144.15474,77.12027a2.85486,2.85486,0,0,0,2.72834-1.76342v1.66781h1.666V66.05818h-1.666v4.79451a2.58739,2.58739,0,0,0-2.59024-1.63948c-1.77758,0-3.472,1.33673-3.472,3.99425C140.82089,75.81187,142.32227,77.12027,144.15474,77.12027Zm.60728-6.57033c1.57044,0,2.245,1.10125,2.245,2.60263,0,1.489-.70289,2.59025-2.25916,2.59025-1.47483,0-2.21844-.96493-2.21844-2.56192C142.52942,71.5963,143.31552,70.54994,144.762,70.54994Z" transform="translate(-16.61565 -17.12005)"/></svg>