<svg id="RZ" xmlns="http://www.w3.org/2000/svg" viewBox="0 0 190.24665 68.72007"><defs><style>.cls-1{fill:#632949;}</style></defs><path d="M98.12109,51.35365H94.13477V61.423h1.68261v-3.0625H98.2041c2.45508,0,4.083-1.33789,4.083-3.61328C102.27344,52.6642,100.83789,51.35365,98.12109,51.35365Zm-.06933,5.71094H95.81738v-4.166h2.24805c1.66895,0,2.56641.60645,2.56641,2.06934C100.63184,56.37416,99.73438,57.06459,98.05176,57.06459Z" transform="translate(-16.61565 -17.12005)"/><path d="M104.98047,61.423h1.58691V55.07826h2.23438V53.69838h-2.23438v-.73047c0-.88281.23438-1.2002,1.02051-1.2002h1.2002V50.4435h-1.24121c-1.66993,0-2.56641.63378-2.56641,2.60644v.64844h-1.66895v1.37988h1.66895Z" transform="translate(-16.61565 -17.12005)"/><path d="M113.24609,57.05092a8.0212,8.0212,0,0,0-2.59375.81347,1.91221,1.91221,0,0,0-.97949,1.76563c0,1.18652.86914,1.93066,2.42774,1.93066a3.10677,3.10677,0,0,0,3.00683-2c0,1.40723.51074,1.98633,1.752,1.98633a2.38446,2.38446,0,0,0,1.15917-.28906V60.14076a1.418,1.418,0,0,1-.55175.11035c-.52442,0-.77246-.23535-.77246-1.02148V56.3058c0-1.80762-1.18653-2.75879-3.11817-2.75879a3.77813,3.77813,0,0,0-3.72363,2.41406l1.50293.48243a2.10519,2.10519,0,0,1,2.15234-1.57227c1.15821,0,1.58594.49609,1.58594,1.07617C115.09375,56.5265,114.625,56.76088,113.24609,57.05092Zm1.90332.19238v.55176a2.501,2.501,0,0,1-2.41406,2.51074c-.91015,0-1.37988-.34473-1.37988-.95215,0-.7998.66211-1.07519,2.042-1.3789C114.418,57.754,114.915,57.56068,115.14941,57.2433Z" transform="translate(-16.61565 -17.12005)"/><path d="M124.78223,59.754V61.423h1.66894V50.4435h-1.66894v4.7998a2.59233,2.59233,0,0,0-2.59375-1.6416c-1.7793,0-3.47559,1.33789-3.47559,4.001,0,2.60645,1.50293,3.917,3.33789,3.917A2.85862,2.85862,0,0,0,124.78223,59.754Zm-4.35938-2.17969c0-1.58593.78613-2.63476,2.23438-2.63476,1.57324,0,2.249,1.10351,2.249,2.60742,0,1.49024-.7041,2.59375-2.2627,2.59375C121.168,60.14076,120.42285,59.17494,120.42285,57.57435Z" transform="translate(-16.61565 -17.12005)"/><rect x="112.14216" y="36.57833" width="1.68359" height="7.72461"/><path d="M129.64062,52.5265a1.01706,1.01706,0,0,0,1.08985-1.07617,1.03129,1.03129,0,0,0-1.08985-1.10351,1.01715,1.01715,0,0,0-1.08886,1.10351A1.003,1.003,0,0,0,129.64062,52.5265Z" transform="translate(-16.61565 -17.12005)"/><path d="M134.42969,59.80971a2.79585,2.79585,0,0,0,2.67578,1.71c1.8623,0,3.39355-1.4209,3.39355-4.01367,0-2.67676-1.5039-3.9043-3.26953-3.9043A2.898,2.898,0,0,0,134.44336,55.34V50.4435h-1.669V61.423h1.65528Zm2.13769-4.87012c1.46192,0,2.23438.97949,2.23438,2.60742,0,1.57227-.73047,2.59375-2.207,2.59375-1.59961,0-2.29-1.07617-2.29-2.58008C134.30469,56.0851,135.0498,54.93959,136.56738,54.93959Z" transform="translate(-16.61565 -17.12005)"/><path d="M145.68945,61.56068A3.78148,3.78148,0,0,0,149.1377,59.713l-1.39258-.77246a2.374,2.374,0,0,1-4.44239-.92481h6.02832v-.5791c0-2.09668-1.18652-3.88965-3.69628-3.88965a3.86293,3.86293,0,0,0-3.959,4.05566A3.69309,3.69309,0,0,0,145.68945,61.56068Zm-.06933-6.63476a1.92589,1.92589,0,0,1,2.06933,2.042h-4.373A2.18566,2.18566,0,0,1,145.62012,54.92592Z" transform="translate(-16.61565 -17.12005)"/><polygon points="141.961 42.262 141.782 43.296 141.588 42.248 139.947 36.578 138.595 36.578 136.912 42.262 136.691 43.269 136.526 42.262 135.202 36.578 133.477 36.578 135.436 44.303 137.505 44.303 139.078 38.938 139.257 38.096 139.451 38.923 140.954 44.303 142.954 44.303 145.106 36.578 143.409 36.578 141.961 42.262"/><path d="M166.5,53.547a3.86292,3.86292,0,0,0-3.959,4.05566,3.69309,3.69309,0,0,0,4.01367,3.958,3.78146,3.78146,0,0,0,3.44824-1.84765l-1.39258-.77246a2.374,2.374,0,0,1-4.44238-.92481h6.02832v-.5791C170.19629,55.34,169.00977,53.547,166.5,53.547Zm-2.31836,3.4209a2.18566,2.18566,0,0,1,2.30371-2.042,1.9259,1.9259,0,0,1,2.06934,2.042Z" transform="translate(-16.61565 -17.12005)"/><path d="M177.40039,55.28529a2.5894,2.5894,0,0,0-2.62109-1.68359c-1.76563,0-3.46192,1.33789-3.46192,3.98633,0,2.59375,1.5166,3.89062,3.35157,3.89062a2.85671,2.85671,0,0,0,2.71777-1.73828v.9375c0,1.835-.82813,2.63477-2.2207,2.63477a2.31439,2.31439,0,0,1-2.207-1.18555l-1.51757.86816a3.91681,3.91681,0,0,0,3.61328,1.78028c2.49707,0,4.01465-1.36621,4.01465-4.22168V53.69838h-1.669Zm-2.125,4.81348c-1.47559,0-2.248-.95117-2.248-2.55176,0-1.55859.78614-2.60742,2.23438-2.60742,1.57324,0,2.249,1.10351,2.249,2.60742C177.51074,59.00892,176.835,60.09877,175.27539,60.09877Z" transform="translate(-16.61565 -17.12005)"/><path d="M186.38477,57.47767c0,1.66993-.75879,2.69043-1.959,2.69043-1.33789,0-1.793-.85546-1.793-2.19335V53.69838h-1.66992v4.73144c0,1.88965.89649,3.14551,2.77344,3.14551a2.79052,2.79052,0,0,0,2.66211-1.98633v1.834h1.66894V53.69838h-1.68261Z" transform="translate(-16.61565 -17.12005)"/><path d="M194.76074,53.547a2.7881,2.7881,0,0,0-2.74512,1.98633v-1.835h-1.66894V61.423h1.66894V57.61635c0-1.69727.78711-2.67676,2.02833-2.67676,1.36523,0,1.8623.85547,1.8623,2.19336v4.29h1.68262V56.70521C197.58887,54.81557,196.55469,53.547,194.76074,53.547Z" transform="translate(-16.61565 -17.12005)"/><path d="M205.19336,53.69838v1.58691a2.5894,2.5894,0,0,0-2.62109-1.68359c-1.76563,0-3.46192,1.33789-3.46192,3.98633,0,2.59375,1.5166,3.89062,3.35156,3.89062a2.85671,2.85671,0,0,0,2.71778-1.73828v.9375c0,1.835-.82813,2.63477-2.22071,2.63477a2.31439,2.31439,0,0,1-2.207-1.18555l-1.51757.86816a3.91681,3.91681,0,0,0,3.61328,1.78028c2.49707,0,4.01464-1.36621,4.01464-4.22168V53.69838Zm-2.125,6.40039c-1.47559,0-2.24805-.95117-2.24805-2.55176,0-1.55859.78614-2.60742,2.23438-2.60742,1.57324,0,2.249,1.10351,2.249,2.60742C205.30371,59.00892,204.62793,60.09877,203.06836,60.09877Z" transform="translate(-16.61565 -17.12005)"/><path d="M97.40283,68.341a3.15917,3.15917,0,0,1,2.93848,1.59961l1.47558-1.10352a4.83448,4.83448,0,0,0-4.248-2.05469c-2.40039,0-3.69727,1.35156-3.69727,2.95117,0,2.01368,1.71094,2.46973,3.46289,2.75977,1.4209.248,2.77246.46875,2.77246,1.61328,0,.85547-.68945,1.49024-1.97265,1.49024a3.62406,3.62406,0,0,1-3.22754-1.66993l-1.40723,1.17286a5.20943,5.20943,0,0,0,4.51074,2.06933c2.31739,0,3.68262-1.25586,3.68262-3.03516,0-2.06835-1.82031-2.49609-3.48926-2.7998-1.53125-.2627-2.74511-.45508-2.74511-1.57324C95.4585,69.00307,96.09326,68.341,97.40283,68.341Z" transform="translate(-16.61565 -17.12005)"/><path d="M106.856,75.73451c-1.54492,0-2.207-1.04785-2.207-2.5791,0-1.51758.73144-2.62109,2.207-2.62109a1.90118,1.90118,0,0,1,2,1.84765l1.71093-.37207a3.38913,3.38913,0,0,0-3.66992-2.86914,3.77467,3.77467,0,0,0-3.94433,4.01465,3.668,3.668,0,0,0,3.90332,4,3.55233,3.55233,0,0,0,3.72461-2.91016l-1.69727-.35937C108.63525,75.03041,108.09717,75.73451,106.856,75.73451Z" transform="translate(-16.61565 -17.12005)"/><path d="M116.47412,69.14076a2.84215,2.84215,0,0,0-2.77246,2.001V66.03725h-1.65527V77.01674h1.66894V73.2101c0-1.69727.78613-2.67578,2.041-2.67578,1.35254,0,1.84863.85546,1.84863,2.19335v4.28907h1.66895v-4.7168C119.27393,70.40932,118.26709,69.14076,116.47412,69.14076Z" transform="translate(-16.61565 -17.12005)"/><polygon points="112.318 57.856 112.14 58.891 111.946 57.842 110.305 52.172 108.953 52.172 107.271 57.856 107.05 58.863 106.884 57.856 105.56 52.172 103.835 52.172 105.794 59.897 107.863 59.897 109.436 54.531 109.615 53.69 109.808 54.518 111.312 59.897 113.312 59.897 115.464 52.172 113.767 52.172 112.318 57.856"/><path d="M136.85693,69.14076a3.86292,3.86292,0,0,0-3.959,4.05566,3.69382,3.69382,0,0,0,4.01367,3.959,3.78209,3.78209,0,0,0,3.44824-1.84863l-1.39257-.77246a2.374,2.374,0,0,1-4.44239-.92383h6.02832v-.58008C140.55322,70.93471,139.3667,69.14076,136.85693,69.14076Zm-2.31836,3.4209a2.18488,2.18488,0,0,1,2.30372-2.041,1.92564,1.92564,0,0,1,2.06933,2.041Z" transform="translate(-16.61565 -17.12005)"/><rect x="125.21003" y="52.17208" width="1.68359" height="7.72461"/><path d="M142.7085,65.94057a1.01715,1.01715,0,0,0-1.08887,1.10351,1.003,1.003,0,0,0,1.08887,1.07617,1.01706,1.01706,0,0,0,1.08984-1.07617A1.03129,1.03129,0,0,0,142.7085,65.94057Z" transform="translate(-16.61565 -17.12005)"/><polygon points="135.323 53.566 135.323 52.172 128.813 52.172 128.813 53.621 133.599 53.621 128.73 58.49 128.73 59.897 135.392 59.897 135.392 58.449 130.441 58.449 135.323 53.566"/><path class="cls-1" d="M35.40112,51.53454c0-5.09271-1.93969-9.5553-4.84887-12.04724-2.90943,2.49194-4.84913,6.95453-4.84913,12.04724s1.9397,9.55536,4.84913,12.04724C33.46143,61.0899,35.40112,56.62725,35.40112,51.53454Z" transform="translate(-16.61565 -17.12005)"/><path class="cls-1" d="M23.06915,61.13678a10.37632,10.37632,0,0,0-2.45739-1.38959,7.42894,7.42894,0,0,0-2.68128-.43256,8.47167,8.47167,0,0,0-.96722.084q-.16407,1.85348-.252,3.67779a9.76758,9.76758,0,0,1,2.77869-.2027,12.33286,12.33286,0,0,1,3.74762.93689,22.58927,22.58927,0,0,1,3.53839,1.89643A15.458,15.458,0,0,0,23.06915,61.13678Z" transform="translate(-16.61565 -17.12005)"/><path class="cls-1" d="M22.813,74.03851a3.82145,3.82145,0,0,0,3.74365-3.74359A3.82066,3.82066,0,0,0,22.813,74.03851Z" transform="translate(-16.61565 -17.12005)"/><path class="cls-1" d="M30.48071,78.34112a5.09472,5.09472,0,0,0,0-7.059,5.09474,5.09474,0,0,0,0,7.059Z" transform="translate(-16.61565 -17.12005)"/><path class="cls-1" d="M67.80859,44.13427c.01252-.05859.02387-.11725.03351-.17694.01514-.09845.022-.21155.02942-.32355.00549-.08075.02185-.15814.02185-.24072a2.49981,2.49981,0,0,0-2.54419-2.574c-1.0896-.00525-2.49206.80584-4.39612,2.39483-.4931.41181-4.019,3.25464-4.18188,3.38745.1629.13257,3.68878,2.97608,4.18188,3.38807,1.90406,1.589,3.30652,2.40008,4.39612,2.39489a2.5,2.5,0,0,0,2.54419-2.574c0-.08258-.01636-.16-.02185-.24079-.00738-.112-.01428-.22509-.02942-.32348-.00964-.05951-.021-.11835-.03351-.17719-.0664-.329-.15808-.61609-.21728-.97015a10.13632,10.13632,0,0,1,0-2.994C67.65051,44.75054,67.74219,44.46319,67.80859,44.13427Z" transform="translate(-16.61565 -17.12005)"/><path class="cls-1" d="M38.14844,74.03851a3.82112,3.82112,0,0,0-3.74365-3.74359,3.82145,3.82145,0,0,0,3.74365,3.74359Z" transform="translate(-16.61565 -17.12005)"/><path class="cls-1" d="M52.7099,32.51532c-.06573-.014-.13147-.0268-.19849-.03754-.11041-.017-.23736-.02478-.363-.033-.09064-.00617-.17743-.02454-.27008-.02454a2.80473,2.80473,0,0,0-2.88794,2.85437c-.0058,1.22248.90417,2.796,2.68689,4.93207.462.55328,3.65143,4.509,3.80041,4.69177.14874-.1828,3.33893-4.13849,3.80121-4.69177,1.62567-1.948,2.51679-3.4245,2.6582-4.59723q-1.86181-1.59449-3.75048-3.0802c-.344.07318-.65387.16718-1.02906.22992a11.37244,11.37244,0,0,1-3.359,0C53.40137,32.69268,53.079,32.58984,52.7099,32.51532Z" transform="translate(-16.61565 -17.12005)"/><path class="cls-1" d="M45.60675,40.81878a2.5,2.5,0,0,0-2.54419,2.574c0,.08258.01642.16.02191.24072.00733.112.01428.22516.02942.32355.00958.05951.021.11834.03351.17718.06635.329.15808.61609.21729.97016a10.13715,10.13715,0,0,1,0,2.99395c-.05921.35413-.15094.64142-.21729.9704-.01251.0586-.02393.11719-.03351.17694-.01514.09845-.02209.21155-.02942.32355-.00549.08075-.02191.15814-.02191.24072a2.49986,2.49986,0,0,0,2.54419,2.574c1.08966.00525,2.49213-.80591,4.39612-2.39484.4931-.4118,4.01929-3.25506,4.18213-3.38788-.16284-.13256-3.689-2.97564-4.18213-3.38769C48.09888,41.62469,46.69641,40.81359,45.60675,40.81878Z" transform="translate(-16.61565 -17.12005)"/><path class="cls-1" d="M41.61432,62.87377a9.4695,9.4695,0,0,1,3.76861.47822,9.70676,9.70676,0,0,1,2.54743,1.18762,3.89979,3.89979,0,0,0-.58789-3.31714,4.77212,4.77212,0,0,0-4.1687-1.90784,7.42894,7.42894,0,0,0-2.68128.43256,10.37613,10.37613,0,0,0-2.45739,1.38959,15.45787,15.45787,0,0,0-3.70673,4.57031,22.586,22.586,0,0,1,3.53833-1.89643A12.33286,12.33286,0,0,1,41.61432,62.87377Z" transform="translate(-16.61565 -17.12005)"/><path class="cls-1" d="M70.34961,43.58953c-.08087.3877-.18762.733-.258,1.154a9.41889,9.41889,0,0,0-.13671,1.85778v.00043a9.41729,9.41729,0,0,0,.13671,1.85773c.07294.43646.18573.78943.2674,1.19482.0155.07245.02954.14435.04138.21839.01856.12054.027.25946.03613.397.00672.1.027.19507.027.29663a3.78626,3.78626,0,0,1-3.57715,3.96552c-.7077,0-1.69061.059-4.08441-1.8252-.63013-.49615-6.02753-6.1015-6.03076-6.10492h-.00024l.00012-.00043h.00012c.00323-.00317,5.40063-5.60876,6.03076-6.10473a9.266,9.266,0,0,1,2.75879-1.64337Q64.44488,37.81206,63.286,36.788c-.25879.40271-.55951.83746-.95856,1.34436-.55664.707-6.84539,6.76245-6.84924,6.76605v.00025l-.00049-.00013v-.00012c-.00354-.0036-6.2926-6.059-6.849-6.766-2.11267-2.684-2.04791-3.78674-2.04791-4.58081V33.55a4.24782,4.24782,0,0,1,4.44843-4.0133c.114,0,.22113.02264.33282.03021.15454.01019.31067.01972.44647.04065.08252.01324.16345.029.24445.04626.45434.09168.85113.21827,1.34051.30011a10.86625,10.86625,0,0,0,1.58881.15326A91.43192,91.43192,0,0,0,30.55212,17.12005c-5.0512,8.16669-9.14178,18.70331-11.72943,30.28412a92.34273,92.34273,0,0,0-1.64679,9.98035,8.2547,8.2547,0,0,1,1.05585-.032,8.116,8.116,0,0,1,5.74951,2.95832,13.12072,13.12072,0,0,1,2.79468,5.39624,19.88848,19.88848,0,0,0-3.63916-1.03565,15.94422,15.94422,0,0,0-3.64941-.14123,8.50583,8.50583,0,0,0-2.8454.74121A90.39641,90.39641,0,0,0,17.1142,77.0122a105.66491,105.66491,0,0,0,12.15765,4.50153A7.06166,7.06166,0,0,1,27.646,76.95141a6.85333,6.85333,0,0,1,2.83471-5.66931,6.85331,6.85331,0,0,1,2.83472,5.66931,6.966,6.966,0,0,1-2.15485,5.11615A97.63012,97.63012,0,0,0,40.93323,84.248a105.94027,105.94027,0,0,0,25.42749,1.33618,108.607,108.607,0,0,0,9.04272-25.53253c.65747-2.94195,1.19239-5.85638,1.61035-8.72589C74.9895,48.72149,72.76343,46.13226,70.34961,43.58953Zm-46.884,5.819a17.13233,17.13233,0,0,1,7.08667-14.17321,17.13279,17.13279,0,0,1,7.08642,14.17321,17.13271,17.13271,0,0,1-7.08642,14.17322A17.13226,17.13226,0,0,1,23.46558,49.40856ZM25.05322,74.8048a5.13977,5.13977,0,0,1-4.51,1.5033,5.31512,5.31512,0,0,1,6.01343-6.01318A5.14047,5.14047,0,0,1,25.05322,74.8048Zm5.49524-5.64727a6.25175,6.25175,0,0,1-4.25195-1.4173,6.25147,6.25147,0,0,1,4.25195-1.41736,6.2515,6.2515,0,0,1,4.252,1.41736A6.25178,6.25178,0,0,1,30.54846,69.15753ZM40.418,76.3081a5.31508,5.31508,0,0,1-6.01318-6.01318A5.31482,5.31482,0,0,1,40.418,76.3081Zm9.3584-10.11829a12.08574,12.08574,0,0,1-.82813,1.74048l-1.20593-.891a15.56955,15.56955,0,0,0-2.84613-1.57983,8.98311,8.98311,0,0,0-3.2793-.92926,15.9442,15.9442,0,0,0-3.64941.14123,19.88925,19.88925,0,0,0-3.6391,1.03565A13.12131,13.12131,0,0,1,37.123,60.31085a8.116,8.116,0,0,1,5.74951-2.95832,8.32954,8.32954,0,0,1,3.37109.56678,6.70075,6.70075,0,0,1,2.81958,2.19055A6.44607,6.44607,0,0,1,49.77637,66.18981Zm4.40857-19.58807h-.00013c-.00323.00317-5.40063,5.60877-6.03082,6.10474-2.39227,1.88305-3.37524,1.82538-4.083,1.82538h-.00134a3.78619,3.78619,0,0,1-3.57715-3.965c0-.10162.02021-.19708.02692-.29663.009-.13782.01752-.27692.03619-.398.01184-.07349.02588-.14569.04126-.21784.08173-.405.19458-.75866.26752-1.19482a9.42921,9.42921,0,0,0,.13672-1.85779v-.00043a9.4272,9.4272,0,0,0-.13672-1.85772c-.07294-.43647-.18573-.78943-.2674-1.19489-.0155-.07239-.02954-.14435-.04138-.21832-.01861-.12061-.0271-.25952-.03613-.397-.00671-.1-.027-.19506-.027-.29663a3.78618,3.78618,0,0,1,3.57715-3.96551c.7077,0,1.69061-.059,4.08435,1.82519.63019.49616,6.02759,6.10151,6.03082,6.10492H54.185ZM55.556,60.131a14.16076,14.16076,0,0,1-1.31348-6.56739A14.16065,14.16065,0,0,1,55.556,46.99627a14.1615,14.1615,0,0,1,1.31342,6.56732A14.16161,14.16161,0,0,1,55.556,60.131Z" transform="translate(-16.61565 -17.12005)"/></svg>